<?xml version="1.0" encoding="utf-8"?>
<svg viewBox="-143.7677 -972.6434 680 923" xmlns="http://www.w3.org/2000/svg">
  <defs>
    <filter id="filter0_d_37_21" x="0" y="0" width="704" height="947" filterUnits="userSpaceOnUse" color-interpolation-filters="sRGB">
      <feFlood flood-opacity="0" result="BackgroundImageFix"/>
      <feColorMatrix in="SourceAlpha" type="matrix" values="0 0 0 0 0 0 0 0 0 0 0 0 0 0 0 0 0 0 127 0" result="hardAlpha"/>
      <feOffset dy="3"/>
      <feGaussianBlur stdDeviation="6"/>
      <feComposite in2="hardAlpha" operator="out"/>
      <feColorMatrix type="matrix" values="0 0 0 0 0 0 0 0 0 0 0 0 0 0 0 0 0 0 0.1 0"/>
      <feBlend mode="normal" in2="BackgroundImageFix" result="effect1_dropShadow_37_21"/>
      <feBlend mode="normal" in="SourceGraphic" in2="effect1_dropShadow_37_21" result="shape"/>
    </filter>
  </defs>
  <g filter="url(#filter0_d_37_21)" transform="matrix(1, 0, 0, 1, -155.7677154541016, -981.6434326171875)">
    <path fill-rule="evenodd" clip-rule="evenodd" d="M12 9H692V932H638.16L682.122 888.03L684.243 885.908L680 881.666L677.878 883.787L629.676 932H619.769C619.922 930.187 620 928.353 620 926.5C620 918.143 618.411 910.158 615.518 902.829L630.314 888.03L632.435 885.909L628.192 881.666L626.071 883.788L612.87 896.992C607.175 885.943 598.382 876.751 587.64 870.565L596.082 862.121L598.204 860L593.961 855.757L591.839 857.879L582.029 867.691C573.937 864.035 564.956 862 555.5 862C519.878 862 491 890.878 491 926.5C491 928.353 491.078 930.187 491.231 932H400.26L486.122 846.121L488.243 844L484 839.757L481.878 841.879L391.776 932H353.24L364.025 921.212L366.146 919.09L361.903 914.848L359.782 916.97L344.755 932H151.76L175.622 908.121L177.743 905.999L173.498 901.758L171.378 903.88L143.278 932H104.084C105.329 928.055 106 923.856 106 919.5C106 903.866 97.3543 890.25 84.5832 883.174L92.6233 875.12L94.7426 872.996L90.4961 868.758L88.3767 870.881L78.7603 880.515C74.3134 878.888 69.5104 878 64.5 878C41.5802 878 23 896.58 23 919.5C23 923.856 23.6711 928.055 24.9156 932H12V9ZM583.229 874.977C594.185 880.885 603.041 890.186 608.391 901.472L577.868 932H526.218L535.64 922.576L537.761 920.455L533.518 916.212L531.397 918.334L517.734 932H497.255C497.086 930.189 497 928.355 497 926.5C497 894.192 523.191 868 555.5 868C563.266 868 570.679 869.513 577.46 872.261L565.936 883.788L563.815 885.91L568.058 890.152L570.179 888.03L583.229 874.977ZM610.846 907.502L586.353 932H613.745C613.914 930.189 614 928.355 614 926.5C614 919.85 612.89 913.459 610.846 907.502ZM49.8767 909.452L73.999 885.285C70.9756 884.448 67.79 884 64.5 884C44.8939 884 29 899.894 29 919.5C29 923.899 29.8003 928.112 31.2633 932H97.7367C99.1997 928.112 100 923.899 100 919.5C100 905.508 91.9048 893.406 80.1426 887.623L54.1233 913.691L52.0039 915.814L47.7574 911.575L49.8767 909.452ZM112.709 854.996L110.59 857.119L102.89 864.834L100.771 866.957L96.524 862.718L98.6434 860.595L106.343 852.881L108.463 850.757L112.709 854.996ZM133.243 875.568L131.123 877.691L115.723 893.119L113.604 895.243L109.357 891.004L111.477 888.881L126.877 873.452L128.996 871.329L133.243 875.568ZM92.176 911.568L90.0566 913.691L74.6566 929.119L72.5373 931.243L68.2907 927.004L70.41 924.881L85.81 909.452L87.9294 907.329L92.176 911.568ZM221.589 862.121L223.709 859.998L219.465 855.757L217.345 857.879L197.645 877.594L195.524 879.716L199.768 883.957L201.889 881.835L221.589 862.121ZM287.022 881.834L289.143 879.712L284.898 875.471L282.778 877.593L243.378 917.022L241.257 919.144L245.502 923.385L247.622 921.263L287.022 881.834ZM247.622 881.835L249.743 879.713L245.498 875.472L243.378 877.594L203.978 917.022L201.857 919.144L206.102 923.385L208.222 921.263L247.622 881.835ZM317.821 908.879L315.7 911L319.943 915.243L322.064 913.121L373.872 861.303L375.993 859.182L371.75 854.94L369.629 857.061L317.821 908.879Z" fill="white"/>
  </g>
</svg>